<?xml version="1.0" encoding="UTF-8" standalone="no"?>
<svg
   fill="#545e6f"
   height="24"
   viewBox="0 0 24 24"
   width="24"
   version="1.1"
   id="svg9468"
   sodipodi:docname="face.svg"
   inkscape:version="1.2.1 (9c6d41e410, 2022-07-14)"
   xmlns:inkscape="http://www.inkscape.org/namespaces/inkscape"
   xmlns:sodipodi="http://sodipodi.sourceforge.net/DTD/sodipodi-0.dtd"
   xmlns="http://www.w3.org/2000/svg"
   xmlns:svg="http://www.w3.org/2000/svg">
  <defs
     id="defs9472" />
  <sodipodi:namedview
     id="namedview9470"
     pagecolor="#ffffff"
     bordercolor="#000000"
     borderopacity="0.25"
     inkscape:showpageshadow="2"
     inkscape:pageopacity="0.0"
     inkscape:pagecheckerboard="0"
     inkscape:deskcolor="#d1d1d1"
     showgrid="false"
     inkscape:zoom="34.875"
     inkscape:cx="9.562724"
     inkscape:cy="12.014337"
     inkscape:window-width="1920"
     inkscape:window-height="1017"
     inkscape:window-x="-8"
     inkscape:window-y="101"
     inkscape:window-maximized="1"
     inkscape:current-layer="svg9468" />
  <path
     d="M9 11.75c-.69 0-1.25.56-1.25 1.25s.56 1.25 1.25 1.25 1.25-.56 1.25-1.25-.56-1.25-1.25-1.25zm6 0c-.69 0-1.25.56-1.25 1.25s.56 1.25 1.25 1.25 1.25-.56 1.25-1.25-.56-1.25-1.25-1.25zM12 2C6.48 2 2 6.48 2 12s4.48 10 10 10 10-4.48 10-10S17.52 2 12 2zm0 18c-4.41 0-8-3.59-8-8 0-.29.02-.58.05-.86 2.36-1.05 4.23-2.98 5.21-5.37C11.07 8.33 14.05 10 17.42 10c.78 0 1.53-.09 2.25-.26.21.71.33 1.47.33 2.26 0 4.41-3.59 8-8 8z"
     id="path9464" />
  <path
     d="M0 0h24v24H0z"
     fill="none"
     id="path9466" />
  <path
     style="fill:#00ccb3;stroke-width:0.0286738"
     d="M 11.225806,21.960204 C 8.0610429,21.668894 5.3542099,20.058473 3.6416385,17.448029 2.7922961,16.15339 2.2766866,14.729516 2.0737609,13.11828 c -0.050676,-0.402369 -0.050676,-1.834191 0,-2.23656 C 2.3435418,8.7396516 3.1664934,6.9209353 4.5947213,5.3104198 5.9652272,3.7649931 7.9950452,2.6096748 10.040457,2.2108518 10.817016,2.0594349 11.066372,2.0373575 12,2.0373575 c 0.931938,0 1.183532,0.022184 1.952887,0.1721965 2.501138,0.4876824 4.788344,1.992323 6.25678,4.1160285 0.913448,1.3210627 1.463678,2.7572129 1.702845,4.4445785 0.07131,0.503122 0.07105,1.950698 -4.5e-4,2.459678 -0.122938,0.875173 -0.324914,1.668123 -0.608159,2.387609 -0.770872,1.95813 -2.094151,3.585142 -3.855874,4.740914 -1.263596,0.828976 -2.60882,1.326689 -4.187979,1.549491 -0.316687,0.04468 -1.724089,0.0809 -2.034244,0.05235 z m 1.70509,-2.00365 c 3.164681,-0.370192 5.796322,-2.570708 6.738426,-5.63451 0.344091,-1.119013 0.428707,-2.469481 0.229034,-3.655377 -0.05214,-0.309683 -0.177617,-0.8452995 -0.210351,-0.8979335 -0.01902,-0.030579 -0.09347,-0.024109 -0.393366,0.034186 C 18.651806,9.9278761 18.14986,9.9742951 17.433692,9.9750159 16.272514,9.9761858 15.338497,9.8257118 14.250896,9.4622575 12.452097,8.8611349 10.845374,7.7401414 9.6563647,6.2567008 9.5021201,6.0642609 9.347682,5.8681004 9.3131693,5.8207885 L 9.2504186,5.734767 9.2156221,5.8351254 C 9.196484,5.8903226 9.0591834,6.1777697 8.9105092,6.4738971 8.6147825,7.0629224 8.1766996,7.7469763 7.7678893,8.2580645 7.4422512,8.6651719 6.6541531,9.4527685 6.2508961,9.774092 5.6607564,10.244328 4.9263409,10.707183 4.3114259,10.996416 l -0.274325,0.129032 -0.018347,0.18638 c -0.034025,0.345655 -0.019774,1.269406 0.025227,1.635265 0.2705381,2.199438 1.3831368,4.125582 3.1554702,5.462786 1.1116465,0.838725 2.4472961,1.377022 3.8334359,1.544964 0.449304,0.05444 1.43964,0.05533 1.898008,0.0017 z"
     id="path9954" />
  <path
     style="fill:#00ccb3;stroke-width:0.0286738"
     d="M 8.702509,14.19547 C 8.216428,14.060001 7.8687416,13.676869 7.7812766,13.180322 c -0.078849,-0.44763 0.1506139,-0.953691 0.5480795,-1.208744 0.5691339,-0.365212 1.3338582,-0.207034 1.6941619,0.350426 0.160911,0.24896 0.207812,0.430909 0.193392,0.750239 -0.01009,0.223429 -0.02533,0.288468 -0.105686,0.450885 -0.2614386,0.528456 -0.8747285,0.821163 -1.408715,0.672342 z"
     id="path9956" />
  <path
     style="fill:#00ccb3;stroke-width:0.0286738"
     d="m 14.698341,14.191182 c -0.349755,-0.09405 -0.646905,-0.339263 -0.809565,-0.668054 -0.08035,-0.162417 -0.0956,-0.227456 -0.105686,-0.450885 -0.01442,-0.31933 0.03248,-0.501279 0.193392,-0.750239 0.359712,-0.556544 1.125076,-0.715607 1.692202,-0.351683 0.396834,0.254647 0.628538,0.76436 0.550039,1.210001 -0.128371,0.728776 -0.831333,1.196156 -1.520382,1.01086 z"
     id="path9958" />
  <path
     style="fill:#000000;stroke-width:0.0286738;stroke:#00ccb3;stroke-opacity:1;fill-opacity:0"
     d="M 10.83871,21.90672 C 8.0811022,21.515878 5.8183647,20.241024 4.1638869,18.146043 3.1491967,16.861193 2.4391348,15.256446 2.1664979,13.631924 2.0771489,13.099533 2.0521923,12.748823 2.0513901,12.014337 2.0503128,11.028085 2.1108535,10.499942 2.3254323,9.6236536 2.7607159,7.8460605 3.6755008,6.2372138 5.001489,4.9172301 6.6004883,3.3254718 8.8442027,2.2719867 11.050702,2.0769598 c 0.524702,-0.046377 1.920158,-0.019885 2.325642,0.044152 1.083146,0.1710566 1.992097,0.4471265 2.895131,0.8793202 2.464204,1.1793716 4.351909,3.3179919 5.184938,5.8741204 0.250913,0.769922 0.407574,1.5078786 0.468712,2.2078846 0.04263,0.488081 0.01399,1.901035 -0.0462,2.27957 -0.125031,0.786316 -0.339208,1.610024 -0.574581,2.209798 -0.915415,2.33264 -2.61414,4.202285 -4.845568,5.333112 -0.963537,0.488294 -1.988735,0.808802 -3.117998,0.974778 -0.430697,0.0633 -2.117563,0.08152 -2.502073,0.02702 z m 2.17451,-1.949715 c 1.447759,-0.189785 2.715597,-0.714551 3.904343,-1.616033 0.403999,-0.306372 1.152231,-1.062614 1.46507,-1.480757 0.562131,-0.751345 0.955649,-1.499194 1.243172,-2.362552 0.385047,-1.156194 0.491463,-2.580722 0.285114,-3.816659 -0.06832,-0.409195 -0.183982,-0.8866834 -0.224632,-0.9273332 -0.01755,-0.017553 -0.222506,0.00516 -0.566572,0.062786 C 17.689285,10.056035 16.254577,9.998408 14.939068,9.6485345 13.475303,9.2592307 12.211317,8.6096562 11.039427,7.644472 10.524796,7.2206153 9.7494168,6.3876731 9.3119911,5.7887946 l -0.060405,-0.082701 -0.029431,0.07709 C 9.1551432,5.9587117 8.6991114,6.843961 8.5454649,7.0967742 7.9942638,8.003731 7.4817385,8.6280883 6.6810036,9.3680565 5.9954346,10.001599 5.0644066,10.63132 4.269235,10.99931 c -0.2066457,0.09563 -0.2346003,0.117839 -0.250896,0.199318 -0.03759,0.187948 -0.019245,1.479681 0.025918,1.824993 0.2608511,1.99444 1.2134885,3.756136 2.7399682,5.066976 1.1873789,1.019643 2.7382162,1.708006 4.2265278,1.876008 0.393658,0.04444 1.635674,0.03848 2.002467,-0.0096 z"
     id="path9968" />
</svg>
